# xmcd CD database file
#
# Track frame offsets:
#	150
#	15332
#	31195
#	41377
#	56804
#	71820
#	87943
#	101995
#	115400
#	131832
#	148338
#	159242
#	172785
#	196281
#	210402
#	231690
#	243991
#	260775
#
# Disc length: 3760 seconds
#
# Revision: 1
# Processed by: cddbd v1.5.1PL0 Copyright (c) Steve Scherf et al.
# Submitted via: CDex 1.51
#
DISCID=050eae12
DTITLE=Jazzset - Jazzset
DYEAR=1998
DGENRE=Jazz
TTITLE0=In The Mood
TTITLE1=American Patrol
TTITLE2=Hallo Dolly
TTITLE3=Pennsylvania 6-5000
TTITLE4=New York, New York
TTITLE5=The Man I Love
TTITLE6=Cute
TTITLE7=Song Of India
TTITLE8=Cheek To Cheek
TTITLE9=I Remember Clifford
TTITLE10=Thunderbird
TTITLE11=Sweet Georgia Brown
TTITLE12=Summertime
TTITLE13=Four Brothers
TTITLE14=Silhuette
TTITLE15=The Shadow Of Your Smile
TTITLE16=The Queen Bee
TTITLE17=Birdland
EXTD=YEAR: 1998
EXTT0=
EXTT1=
EXTT2=
EXTT3=
EXTT4=
EXTT5=
EXTT6=
EXTT7=
EXTT8=
EXTT9=
EXTT10=
EXTT11=
EXTT12=
EXTT13=
EXTT14=
EXTT15=
EXTT16=
EXTT17=
PLAYORDER=
